<?xml version="1.0" encoding="UTF-8" standalone="no"?>
<svg
   xmlns:dc="http://purl.org/dc/elements/1.1/"
   xmlns:cc="http://creativecommons.org/ns#"
   xmlns:rdf="http://www.w3.org/1999/02/22-rdf-syntax-ns#"
   xmlns:svg="http://www.w3.org/2000/svg"
   xmlns="http://www.w3.org/2000/svg"
   xmlns:sodipodi="http://sodipodi.sourceforge.net/DTD/sodipodi-0.dtd"
   xmlns:inkscape="http://www.inkscape.org/namespaces/inkscape"
   version="1.1"
   x="0px"
   y="0px"
   viewBox="0 0 54.487186 75.078377"
   enable-background="new 0 0 100 100"
   xml:space="preserve"
   id="svg2"
   inkscape:version="0.91 r13725"
   sodipodi:docname="zen_stones_noun_138675_cc.svg"
   width="54.487186"
   height="75.078377"><metadata
     id="metadata22"><rdf:RDF><cc:Work
         rdf:about=""><dc:format>image/svg+xml</dc:format><dc:type
           rdf:resource="http://purl.org/dc/dcmitype/StillImage" /><dc:title></dc:title></cc:Work></rdf:RDF></metadata><defs
     id="defs20" /><sodipodi:namedview
     pagecolor="#ffffff"
     bordercolor="#666666"
     borderopacity="1"
     objecttolerance="10"
     gridtolerance="10"
     guidetolerance="10"
     inkscape:pageopacity="0"
     inkscape:pageshadow="2"
     inkscape:window-width="1280"
     inkscape:window-height="736"
     id="namedview18"
     showgrid="false"
     fit-margin-top="0"
     fit-margin-left="0"
     fit-margin-right="0"
     fit-margin-bottom="0"
     inkscape:zoom="1.888"
     inkscape:cx="27.243121"
     inkscape:cy="23.980188"
     inkscape:window-x="0"
     inkscape:window-y="27"
     inkscape:window-maximized="1"
     inkscape:current-layer="svg2" /><g
     id="g4"
     transform="translate(-22.756879,-12.461134)"><path
       d="M 50.946,60.057 C 37.049,59.984 22.794,64.249 22.757,71.41 22.712,79.852 35.175,87.441 53.936,87.539 65.175,87.598 77.204,82.536 77.244,74.768 77.274,68.921 66.821,60.469 50.946,60.057 Z"
       id="path6"
       inkscape:connector-curvature="0" /><path
       d="m 51.405,37.97 c 8.108,-0.266 13.56,-3.769 13.351,-8.271 -0.209,-4.495 -6.836,-6.844 -14.054,-6.882 -9.078,-0.047 -14.618,4.579 -14.445,8.268 0.135,2.914 4.386,7.241 15.148,6.885 z"
       id="path8"
       inkscape:connector-curvature="0" /><path
       d="M 49.208,60.01 C 63.727,60.647 70.556,54.822 70.9,50.864 71.333,45.853 62.864,39.692 52.219,38.312 40.588,36.806 29.938,40.459 29.348,47.27 c -0.589,6.819 8.142,12.226 19.86,12.74 z"
       id="path10"
       inkscape:connector-curvature="0" /><path
       d="m 50.651,22.816 c 5.194,0.027 7.96,-3.125 7.969,-4.932 0.01,-1.807 -0.889,-3.474 -5.51,-4.815 -5.424,-1.573 -10.938,0.038 -11.666,3.323 -0.726,3.273 4.012,6.398 9.207,6.424 z"
       id="path12"
       inkscape:connector-curvature="0" /></g></svg>