<?xml version="1.0" encoding="UTF-8" standalone="no"?>
<svg
   xmlns:dc="http://purl.org/dc/elements/1.1/"
   xmlns:cc="http://creativecommons.org/ns#"
   xmlns:rdf="http://www.w3.org/1999/02/22-rdf-syntax-ns#"
   xmlns:svg="http://www.w3.org/2000/svg"
   xmlns="http://www.w3.org/2000/svg"
   xmlns:sodipodi="http://sodipodi.sourceforge.net/DTD/sodipodi-0.dtd"
   xmlns:inkscape="http://www.inkscape.org/namespaces/inkscape"
   version="1.1"
   x="0px"
   y="0px"
   viewBox="0 0 188.75496 201.92312"
   xml:space="preserve"
   id="svg2"
   inkscape:version="0.91 r13725"
   sodipodi:docname="fly_kick_noun_642322_cc.svg"
   width="188.75496"
   height="201.92313"><metadata
     id="metadata22"><rdf:RDF><cc:Work
         rdf:about=""><dc:format>image/svg+xml</dc:format><dc:type
           rdf:resource="http://purl.org/dc/dcmitype/StillImage" /><dc:title></dc:title></cc:Work></rdf:RDF></metadata><defs
     id="defs20" /><sodipodi:namedview
     pagecolor="#ffffff"
     bordercolor="#666666"
     borderopacity="1"
     objecttolerance="10"
     gridtolerance="10"
     guidetolerance="10"
     inkscape:pageopacity="0"
     inkscape:pageshadow="2"
     inkscape:window-width="1280"
     inkscape:window-height="736"
     id="namedview18"
     showgrid="false"
     fit-margin-top="0"
     fit-margin-left="0"
     fit-margin-right="0"
     fit-margin-bottom="0"
     inkscape:zoom="0.54208789"
     inkscape:cx="162.67705"
     inkscape:cy="-15.75488"
     inkscape:window-x="0"
     inkscape:window-y="27"
     inkscape:window-maximized="1"
     inkscape:current-layer="svg2" /><circle
     r="22.494198"
     id="ellipse6"
     cy="61.479507"
     cx="28.387165"
     transform="matrix(0.92653304,-0.37621341,0.37621341,0.92653304,0,0)" /><path
     inkscape:connector-curvature="0"
     id="path8"
     d="m 59.455046,201.92313 c 10.415,-0.055 21.067,-2.699 29.665,-5.173 8.533,-2.499 14.762004,-4.955 14.987004,-5.04 6.166,-2.429 9.197,-9.395 6.768,-15.561 -2.43,-6.167 -9.396,-9.198 -15.562004,-6.768 0,0 -0.037,0.014 -0.186,0.071 -1.109,0.428 -6.966,2.637 -14.172,4.675 -7.154,2.062 -15.862,3.845 -21.5,3.796 -1.97,0.008 -3.502,-0.212 -4.234,-0.426 -0.052,-0.014 -0.1,-0.028 -0.142,-0.041 -0.256,-0.508 -0.688,-1.61 -0.982,-3.18 -0.398,-2.005 -0.618,-4.696 -0.614,-7.617 -0.003,-1.957 0.097,-4.012 0.256,-6.07 3.177,-0.999 11.219,-3.438 22.184,-6.117 l 4.736,-0.988 c 0.537,-0.112 1.049,-0.279 1.532,-0.492 1.424,-0.324 2.88,-0.649 4.374,-0.972 17.983004,-3.902 40.817004,-7.521 62.445004,-7.509 8.939,-0.002 17.656,0.611 25.693,2.007 6.528,1.133 12.74,-3.241 13.873,-9.77 1.134,-6.531 -3.241,-12.743 -9.77,-13.876 -9.731,-1.688 -19.77,-2.361 -29.795,-2.363 -23.491,0.013 -46.956,3.699 -65.736004,7.678 l -6.674,-31.988999 c 10.612,5.908999 26.909004,13.548999 48.133004,19.212999 0.69,0.184 1.384,0.271 2.065,0.271 3.536,0 6.771,-2.361 7.726,-5.941 1.14,-4.269 -1.399,-8.652 -5.668,-9.788999 -18.28,-4.872 -32.600004,-11.334 -42.283004,-16.533 -4.84,-2.6 -8.521,-4.882 -10.956,-6.486 -1.217,-0.802 -2.121,-1.436 -2.704,-1.853 -0.29,-0.21 -0.501,-0.364 -0.63,-0.46 -0.063,-0.049 -0.108,-0.082 -0.131,-0.101 l -0.008,-0.004 c -0.466,-0.361 -0.961,-0.658 -1.472,-0.901 -1.783,-1.849 -4.442,-2.775 -7.142,-2.212 l -35.131,7.33 c -4.152,-3.361 -6.948,-6.784 -8.845,-10.168 -2.537,-4.565 -3.541,-9.181 -3.553,-14.036 -0.063,-9.638 4.428,-20.187 9.252,-28.123 2.389,-3.969 4.804,-7.288 6.594,-9.573 0.894,-1.142 1.633,-2.027 2.132,-2.611 0.25,-0.291 0.44,-0.507 0.56,-0.643 0.061,-0.067 0.103,-0.115 0.127,-0.142 0.014,-0.016 0.014,-0.014 0.014,-0.016 2.993,-3.247 2.787,-8.3100001 -0.463,-11.3030001 -3.248,-2.99499999 -8.31,-2.78699999 -11.303,0.463 l 0,-10e-4 c -0.238,0.267 -5.747,6.247 -11.37,15.5750001 -5.5729996,9.337 -11.48199958,22.052 -11.544999583226,36.374 -0.0099999968,7.15 1.594999983226,14.714 5.585999983226,21.838 3.356,6.02 8.3519996,11.637 15.0849996,16.606 l 10.866,52.070999 c -1.019,5.916 -2.026,13.712 -2.055,21.614 0.01,4.603 0.335,9.293 1.444,13.993 1.138,4.653 3.019,9.579 7.164,13.883 3.274,3.329 7.156,5.103 10.739,6.095 3.626,0.993 7.142,1.287 10.626,1.295 z" /></svg>